<?xml version="1.0" encoding="utf-8"?>
<!-- Generator: Adobe Illustrator 21.1.0, SVG Export Plug-In . SVG Version: 6.00 Build 0)  -->
<svg version="1.1" id="Layer_1" xmlns="http://www.w3.org/2000/svg" xmlns:xlink="http://www.w3.org/1999/xlink" x="0px" y="0px"
	 viewBox="0 0 491.1 309" style="enable-background:new 0 0 491.1 309;" xml:space="preserve">
<style type="text/css">
	.st0{fill:#2E3192;}
	.st1{fill:none;stroke:#000000;stroke-miterlimit:10;}
	.st2{fill:#FFCC28;stroke:#000000;stroke-miterlimit:10;}
	.st3{fill:none;}
	.st4{font-family:'MyanmarMN-Bold';}
	.st5{font-size:36px;}
	.st6{font-size:48px;}
</style>
<g id="XMLID_1_">
	<g>
		<polygon class="st0" points="436.2,124 21.7,243.2 21.7,4.8 		"/>
	</g>
	<g>
		<line class="st1" x1="21.7" y1="4.8" x2="21.7" y2="243.2"/>
		<line class="st1" x1="436.2" y1="124" x2="21.7" y2="4.8"/>
		<line class="st1" x1="21.7" y1="243.2" x2="436.2" y2="124"/>
	</g>
</g>
<line class="st1" x1="140.1" y1="64.4" x2="140.1" y2="64.4"/>
<polygon class="st2" points="156.9,198.4 26.8,124 156.9,49.6 287,124 "/>
<rect x="57.4" y="107.6" class="st3" width="33.8" height="32.9"/>
<text transform="matrix(1 0 0 1 57.4246 135.6508)" class="st0 st4 st5">G</text>
<rect x="144.7" y="56.8" class="st3" width="24.4" height="28.5"/>
<text transform="matrix(1 0 0 1 144.7324 84.8581)" class="st0 st4 st5">P</text>
<rect x="228.9" y="107.6" class="st3" width="27.3" height="32.9"/>
<text transform="matrix(1 0 0 1 228.9169 135.651)" class="st0 st4 st5">B</text>
<rect x="140.6" y="153" class="st3" width="32.7" height="31.7"/>
<text transform="matrix(1 0 0 1 140.5801 181.037)" class="st0 st4 st5">C</text>
<rect y="266" class="st3" width="485.2" height="52"/>
<text transform="matrix(1 0 0 1 -3.269958e-02 303.3828)" class="st4 st6">G</text>
<text transform="matrix(1 0 0 1 41.9673 303.3828)" class="st4 st5">rosse </text>
<text transform="matrix(1 0 0 1 149.1673 303.3828)" class="st4 st6">P</text>
<text transform="matrix(1 0 0 1 180.9673 303.3828)" class="st4 st5">ointe </text>
<text transform="matrix(1 0 0 1 284.3673 303.3828)" class="st4 st6">B</text>
<text transform="matrix(1 0 0 1 320.2673 303.3828)" class="st4 st5">oat </text>
<text transform="matrix(1 0 0 1 389.1673 303.3828)" class="st4 st6">C</text>
<text transform="matrix(1 0 0 1 429.5673 303.3828)" class="st4 st5">lub</text>
</svg>
